<svg width="403" height="352" viewBox="0 0 403 352" fill="none" xmlns="http://www.w3.org/2000/svg">
<path fill-rule="evenodd" clip-rule="evenodd" d="M10.2473 216.438C4.90406 226.39 1.52419 237.392 0.570071 249.102C-3.61075 300.411 40.3682 345.865 98.7997 350.626C106.316 351.238 113.706 351.147 120.885 350.415L120.944 350.745L124.713 349.961C130.231 349.216 135.613 348.09 140.82 346.612L303.609 312.757L303.59 312.648C356.089 304.348 397.885 262.379 402.26 208.688C405.477 169.207 387.701 132.705 358.001 109.513L358.086 109.389L245.603 23.5386C244.319 22.5115 243.011 21.5129 241.679 20.544L238.123 17.8303L238.012 17.9922C223.405 8.27249 206.204 2.01548 187.484 0.490132C142.273 -3.19376 101.333 21.7907 82.519 60.2581L82.1627 60.0768L10.1591 216.393L10.2473 216.438Z" fill="#4542C2"/>
</svg>
